<svg width="440" height="373" viewBox="0 0 440 373" fill="none" xmlns="http://www.w3.org/2000/svg">
<g clip-path="url(#clip0_111_3862)">
<path d="M187.81 88.56C145 92.81 97.5 71.48 59.12 99.56C23.07 126 19.48 178.41 34.05 215.85C69.59 307.1 188.93 288.57 263.68 260.53C332.29 234.8 431.59 152.15 388.36 67.61C371.9 35.41 331.36 13.27 295.11 18.82C245.06 26.46 239.51 83.44 187.81 88.56Z" fill="#C9F56A"/>
<path opacity="0.9" d="M187.81 88.56C145 92.81 97.5 71.48 59.12 99.56C23.07 126 19.48 178.41 34.05 215.85C69.59 307.1 188.93 288.57 263.68 260.53C332.29 234.8 431.59 152.15 388.36 67.61C371.9 35.41 331.36 13.27 295.11 18.82C245.06 26.46 239.51 83.44 187.81 88.56Z" fill="white"/>
<path d="M220 372.56C327.082 372.56 413.89 367.492 413.89 361.24C413.89 354.988 327.082 349.92 220 349.92C112.917 349.92 26.11 354.988 26.11 361.24C26.11 367.492 112.917 372.56 220 372.56Z" fill="#F5F5F5"/>
<path d="M187.87 95.6999C187.94 107.55 179.45 107.43 179.62 103.7C179.79 99.9699 177.69 91.2099 179.62 92.0599C181.55 92.9099 187.84 90.4599 187.87 95.6999Z" fill="#1A2E35"/>
<path d="M182.53 117.16C183.7 117.07 186.05 118.16 186.26 121.25C186.315 122.148 186.577 123.021 187.027 123.8C187.476 124.579 188.1 125.243 188.85 125.74C188.85 125.74 184.96 126.21 182.41 124.19C180.33 122.56 179.41 118.99 180.5 118.19C181.099 117.711 181.79 117.36 182.53 117.16Z" fill="#1A2E35"/>
<path d="M181 108.74C183 110.51 184.83 115.19 180.32 117.41C175.81 119.63 168.72 114.41 168.72 114.41L176.51 110.8L181 108.74Z" fill="#1A2E35"/>
<path d="M183.22 117.59C183.111 116.942 182.929 116.308 182.68 115.7C182.661 115.649 182.632 115.603 182.595 115.563C182.559 115.524 182.514 115.492 182.465 115.47C182.416 115.447 182.362 115.435 182.308 115.433C182.254 115.432 182.2 115.441 182.15 115.46H182.07L179.3 117.31C179.255 117.34 179.217 117.379 179.187 117.424C179.157 117.469 179.137 117.519 179.127 117.572C179.116 117.625 179.117 117.679 179.128 117.732C179.139 117.785 179.16 117.835 179.19 117.88C179.221 117.921 179.258 117.958 179.3 117.99C179.7 118.28 180.129 118.528 180.58 118.73C181.23 118.99 182.58 118.25 183.04 117.93C183.097 117.894 183.145 117.844 183.176 117.784C183.208 117.725 183.223 117.657 183.22 117.59Z" fill="#C9F56A"/>
<path opacity="0.3" d="M183.22 117.59C183.111 116.942 182.929 116.308 182.68 115.7C182.661 115.649 182.632 115.603 182.595 115.563C182.559 115.524 182.514 115.492 182.465 115.47C182.416 115.447 182.362 115.435 182.308 115.433C182.254 115.432 182.2 115.441 182.15 115.46H182.07L179.3 117.31C179.255 117.34 179.217 117.379 179.187 117.424C179.157 117.469 179.137 117.519 179.127 117.572C179.116 117.625 179.117 117.679 179.128 117.732C179.139 117.785 179.16 117.835 179.19 117.88C179.221 117.921 179.258 117.958 179.3 117.99C179.7 118.28 180.129 118.528 180.58 118.73C181.23 118.99 182.58 118.25 183.04 117.93C183.097 117.894 183.145 117.844 183.176 117.784C183.208 117.725 183.223 117.657 183.22 117.59Z" fill="black"/>
<path d="M153.41 112.68C152.3 112.31 149.76 112.81 148.82 115.77C148.552 116.628 148.09 117.414 147.469 118.064C146.848 118.714 146.085 119.213 145.24 119.52C145.24 119.52 148.91 120.9 151.87 119.52C154.27 118.43 155.97 115.17 155.14 114.13C154.67 113.532 154.081 113.038 153.41 112.68Z" fill="#1A2E35"/>
<path d="M164.43 92.33C160.38 93.43 154.93 98.23 157.35 104.12C154.96 105.75 151.9 110.44 155.48 113.44C159.33 116.67 168.8 112.14 168.8 112.14L168.87 110.6L170 99.14L164.43 92.33Z" fill="#1A2E35"/>
<path d="M152.64 112.94C152.906 112.333 153.242 111.76 153.64 111.23C153.71 111.144 153.812 111.089 153.923 111.078C154.033 111.067 154.144 111.1 154.23 111.17L154.29 111.23L156.53 113.68C156.568 113.718 156.598 113.763 156.619 113.813C156.64 113.863 156.65 113.916 156.65 113.97C156.65 114.024 156.64 114.077 156.619 114.127C156.598 114.177 156.568 114.222 156.53 114.26C156.499 114.298 156.457 114.326 156.41 114.34C155.956 114.526 155.483 114.664 155 114.75C154.3 114.85 153.22 113.82 152.8 113.4C152.73 113.348 152.677 113.277 152.649 113.195C152.62 113.113 152.617 113.024 152.64 112.94Z" fill="#C9F56A"/>
<path opacity="0.3" d="M152.64 112.94C152.906 112.333 153.242 111.76 153.64 111.23C153.71 111.144 153.812 111.089 153.923 111.078C154.033 111.067 154.144 111.1 154.23 111.17L154.29 111.23L156.53 113.68C156.568 113.718 156.598 113.763 156.619 113.813C156.64 113.863 156.65 113.916 156.65 113.97C156.65 114.024 156.64 114.077 156.619 114.127C156.598 114.177 156.568 114.222 156.53 114.26C156.499 114.298 156.457 114.326 156.41 114.34C155.956 114.526 155.483 114.664 155 114.75C154.3 114.85 153.22 113.82 152.8 113.4C152.73 113.348 152.677 113.277 152.649 113.195C152.62 113.113 152.617 113.024 152.64 112.94Z" fill="black"/>
<path d="M189.08 134.07C190.99 135.55 193.08 137.13 195.18 138.57C197.28 140.01 199.39 141.46 201.56 142.79C203.73 144.12 205.93 145.36 208.15 146.54L209.82 147.39L211.52 148.18C212.08 148.45 212.65 148.69 213.23 148.91L214.08 149.26C214.37 149.37 214.68 149.51 214.86 149.56C215.906 149.879 216.976 150.109 218.06 150.25C219.24 150.42 220.48 150.54 221.74 150.63C224.25 150.79 226.83 150.86 229.42 150.87C232.01 150.88 234.63 150.87 237.24 150.79L245.09 150.57L245.58 154.5C240.327 155.558 235.024 156.342 229.69 156.85C227 157.09 224.3 157.27 221.54 157.29C220.16 157.29 218.76 157.29 217.32 157.16C215.771 157.07 214.236 156.819 212.74 156.41C212.28 156.29 211.99 156.17 211.65 156.06L210.65 155.71C209.98 155.49 209.32 155.25 208.65 154.98L206.71 154.2L204.81 153.36C202.298 152.229 199.851 150.961 197.48 149.56C195.12 148.17 192.8 146.73 190.56 145.19C188.273 143.641 186.07 141.972 183.96 140.19L189.08 134.07Z" fill="#FD897B"/>
<path d="M178.7 129.58C181.19 127.64 191.44 133.99 194.56 136.64L192.29 150.37C192.29 150.37 177.54 144.19 176.65 139.97C175.73 135.56 176.82 131.06 178.7 129.58Z" fill="#1A2E35"/>
<path d="M244 150.91L250.18 146.12L250.67 153.53C250.67 153.53 246.41 156.17 243.6 154.53L244 150.91Z" fill="#FD897B"/>
<path d="M255.69 145.39L258.85 148.91L250.63 153.53L250.14 146.12L255.69 145.39Z" fill="#FD897B"/>
<path d="M138.28 351.47L146.07 352.05L148.91 334.12L141.13 333.54L138.28 351.47Z" fill="#FD897B"/>
<path d="M83.17 326.41L89.78 330.57L101.55 316.61L94.94 312.44L83.17 326.41Z" fill="#FD897B"/>
<path d="M91.87 329.08L85.68 322.85C85.5731 322.743 85.4316 322.679 85.2811 322.668C85.1306 322.657 84.9812 322.7 84.86 322.79L79.23 327C78.9704 327.21 78.8045 327.514 78.7689 327.846C78.7333 328.177 78.8308 328.51 79.04 328.77L79.13 328.87C81.32 331 82.49 331.92 85.21 334.66C86.88 336.35 89.15 338.98 91.46 341.31C93.77 343.64 96.19 341.47 95.46 340.31C92.08 335.04 92.69 333.07 92.46 330.39C92.4324 329.895 92.2221 329.428 91.87 329.08Z" fill="#1A2E35"/>
<path d="M146.59 350.93H137.81C137.656 350.93 137.506 350.984 137.387 351.082C137.268 351.181 137.188 351.318 137.16 351.47L135.77 358.41C135.714 358.715 135.78 359.029 135.954 359.285C136.128 359.542 136.396 359.719 136.7 359.78C136.793 359.79 136.887 359.79 136.98 359.78C140.04 359.78 141.53 359.55 145.39 359.55C147.76 359.55 154.39 359.79 157.7 359.79C161.01 359.79 161.34 356.55 159.99 356.26C153.99 354.94 149.86 353.13 147.89 351.39C147.528 351.083 147.065 350.919 146.59 350.93Z" fill="#1A2E35"/>
<path d="M148.91 334.12L147.33 344.08L139.65 342.79L141.12 333.55L148.91 334.12Z" fill="#E77064"/>
<path d="M94.94 312.45L101.55 316.61L96.68 322.39L89.92 318.4L94.94 312.45Z" fill="#E77064"/>
<path d="M144.2 171.13L175.34 177.2C191.43 133.63 187.93 132.2 187.93 132.2C185.668 130.955 183.33 129.853 180.93 128.9L180.51 128.74C178.51 128.01 178.11 127.9 175.45 127.12C170.87 126.03 166.6 125.12 161.31 124.37L160.31 124.23C159.31 124.11 158.4 124.01 157.48 123.92C156.86 123.85 156.24 123.81 155.65 123.77L153.65 123.66C150.23 123.49 147.78 123.54 147.78 123.54C148.73 150.75 147.19 158.56 144.2 171.13Z" fill="#1A2E35"/>
<path d="M165.81 108.74C165.81 113.46 165.08 121.97 161.3 124.39C161.3 124.39 161.65 129.25 170.1 130.89C179.4 132.7 175.44 127.14 175.44 127.14C170.61 124.94 171.44 121.2 173.04 117.84L165.81 108.74Z" fill="#FD897B"/>
<path d="M168.76 112.45L173.04 117.84C172.669 118.621 172.361 119.43 172.12 120.26C170.23 119.6 167.98 116.96 168.12 114.89C168.181 114.044 168.398 113.217 168.76 112.45Z" fill="#E77064"/>
<path d="M165.36 97.9C164.36 105.59 163.75 108.82 166.83 113.47C171.46 120.47 181.12 120.02 184.41 112.79C187.41 106.28 188.53 94.79 181.68 90.34C180.521 89.5745 179.223 89.0449 177.859 88.7814C176.496 88.5179 175.094 88.5256 173.733 88.8042C172.373 89.0828 171.081 89.6268 169.93 90.4051C168.78 91.1834 167.795 92.1807 167.03 93.34C166.13 94.7114 165.559 96.2719 165.36 97.9Z" fill="#FD897B"/>
<path d="M190.39 85.72C190.531 86.9395 190.439 88.1746 190.12 89.36C190.048 88.9576 189.951 88.5602 189.83 88.17C187.09 79.11 174.75 81.27 171.03 85.17C165.03 83.45 159.32 84.82 160.08 92.17C160.175 94.0636 160.856 95.8808 162.03 97.37C161.1 99.95 162.03 104.06 165.1 104.18C169.42 104.35 173.52 98.63 175.17 95.49C178.17 96 182.49 96.49 185.77 95.69C186.32 96.02 186.77 96.25 186.77 96.25C190.26 94.38 192.92 92.57 190.39 85.72Z" fill="#1A2E35"/>
<path d="M162.7 103.15C162.58 104.642 163.05 106.121 164.01 107.27C165.31 108.78 167.01 107.89 167.62 106.1C168.13 104.48 168.06 101.75 166.32 100.9C166.018 100.758 165.691 100.677 165.358 100.661C165.024 100.646 164.691 100.696 164.377 100.81C164.063 100.923 163.775 101.097 163.528 101.322C163.282 101.547 163.082 101.818 162.94 102.12C162.79 102.443 162.708 102.794 162.7 103.15Z" fill="#FD897B"/>
<path d="M174.87 177.2C174.87 177.2 174.99 239.02 169.93 262.3C164.67 286.52 149.2 341.62 149.2 341.62L138 340.17C138 340.17 146.77 284.51 150.5 260.44C154.57 234.21 152.08 172.76 152.08 172.76L174.87 177.2Z" fill="#C9F56A"/>
<path opacity="0.3" d="M174.87 177.2C174.87 177.2 174.99 239.02 169.93 262.3C164.67 286.52 149.2 341.62 149.2 341.62L138 340.17C138 340.17 146.77 284.51 150.5 260.44C154.57 234.21 152.08 172.76 152.08 172.76L174.87 177.2Z" fill="black"/>
<path d="M151.11 342.59L136.08 340.65L136.72 335.33L153.78 337.33L151.11 342.59Z" fill="#1A2E35"/>
<path d="M167.12 175.6C167.12 175.6 150.35 226.69 142.02 256.12C133.24 287.17 99.5799 321.51 99.5799 321.51L89.9299 315.93C89.9299 315.93 112.93 283.33 121.38 254.36C138.59 195.55 131.52 183.09 144.2 171.13L167.12 175.6Z" fill="#C9F56A"/>
<path opacity="0.3" d="M167.12 175.6C167.12 175.6 150.35 226.69 142.02 256.12C133.24 287.17 99.5799 321.51 99.5799 321.51L89.9299 315.93C89.9299 315.93 112.93 283.33 121.38 254.36C138.59 195.55 131.52 183.09 144.2 171.13L167.12 175.6Z" fill="black"/>
<path d="M101.15 323.06L87.74 315.32L91.08 310.54L105.97 318.75L101.15 323.06Z" fill="#1A2E35"/>
<path d="M176.46 102.27C176.34 102.89 176.57 103.45 176.98 103.53C177.39 103.61 177.81 103.17 177.98 102.53C178.15 101.89 177.87 101.34 177.46 101.26C177.05 101.18 176.58 101.65 176.46 102.27Z" fill="#1A2E35"/>
<path d="M183.45 103.63C183.33 104.25 183.56 104.82 183.97 104.9C184.38 104.98 184.8 104.54 184.92 103.9C185.04 103.26 184.81 102.71 184.4 102.64C183.99 102.57 183.57 103 183.45 103.63Z" fill="#1A2E35"/>
<path d="M184.22 102.65L185.79 102.52C185.79 102.52 184.8 103.53 184.22 102.65Z" fill="#1A2E35"/>
<path d="M181.4 104.34C181.676 105.856 182.161 107.327 182.84 108.71C182.482 108.878 182.091 108.965 181.695 108.965C181.299 108.965 180.908 108.878 180.55 108.71L181.4 104.34Z" fill="#FD5652"/>
<path d="M177.93 110.71C177.094 110.573 176.304 110.236 175.626 109.728C174.949 109.219 174.405 108.554 174.04 107.79C174.03 107.768 174.024 107.745 174.023 107.721C174.023 107.697 174.026 107.673 174.035 107.651C174.043 107.629 174.056 107.608 174.072 107.591C174.089 107.574 174.108 107.56 174.13 107.55C174.175 107.533 174.225 107.534 174.27 107.552C174.314 107.571 174.35 107.606 174.37 107.65C174.719 108.352 175.229 108.963 175.858 109.432C176.487 109.901 177.217 110.215 177.99 110.35C178.014 110.354 178.037 110.362 178.057 110.375C178.078 110.387 178.095 110.404 178.109 110.423C178.123 110.443 178.133 110.465 178.138 110.488C178.144 110.512 178.144 110.536 178.14 110.56C178.13 110.607 178.103 110.648 178.064 110.676C178.025 110.704 177.977 110.716 177.93 110.71Z" fill="#1A2E35"/>
<path d="M174.87 99.6099C174.773 99.6051 174.682 99.5646 174.614 99.4962C174.545 99.4278 174.505 99.3365 174.5 99.2399C174.504 99.1379 174.547 99.0413 174.62 98.9699C175.048 98.5672 175.567 98.2727 176.132 98.1109C176.698 97.9491 177.293 97.9248 177.87 98.0399C177.965 98.0679 178.045 98.1315 178.093 98.2174C178.142 98.3032 178.155 98.4045 178.13 98.4999C178.118 98.546 178.098 98.5893 178.069 98.6273C178.041 98.6654 178.005 98.6974 177.964 98.7216C177.923 98.7457 177.878 98.7616 177.831 98.7682C177.784 98.7747 177.736 98.772 177.69 98.76C177.232 98.6787 176.761 98.7051 176.315 98.837C175.869 98.9689 175.46 99.2027 175.12 99.5199C175.051 99.5807 174.962 99.6129 174.87 99.6099Z" fill="#1A2E35"/>
<path d="M187.33 101C187.257 101.001 187.185 100.979 187.124 100.938C187.063 100.897 187.016 100.838 186.99 100.77C186.817 100.342 186.547 99.959 186.202 99.652C185.857 99.345 185.446 99.1218 185 98.9999C184.952 98.9915 184.906 98.9736 184.865 98.9474C184.824 98.9212 184.789 98.8872 184.761 98.8472C184.733 98.8073 184.713 98.7622 184.703 98.7146C184.692 98.667 184.691 98.6178 184.7 98.5699C184.719 98.4742 184.775 98.3897 184.855 98.3339C184.935 98.278 185.033 98.2551 185.13 98.2699C185.7 98.4124 186.228 98.6891 186.67 99.077C187.112 99.4649 187.455 99.9527 187.67 100.5C187.69 100.545 187.701 100.593 187.702 100.641C187.703 100.69 187.695 100.739 187.677 100.784C187.659 100.83 187.633 100.872 187.599 100.907C187.565 100.942 187.525 100.97 187.48 100.99L187.33 101Z" fill="#1A2E35"/>
<path d="M177.3 107.75C176.99 107.751 176.685 107.68 176.407 107.543C176.129 107.406 175.887 107.207 175.7 106.96C175.23 106.226 174.916 105.404 174.778 104.543C174.641 103.683 174.682 102.804 174.9 101.96C175.47 98.8 177.45 96.23 179.32 96.23C179.631 96.2344 179.937 96.3086 180.216 96.4471C180.495 96.5855 180.739 96.7847 180.93 97.03C181.4 97.7635 181.714 98.5861 181.852 99.4465C181.989 100.307 181.948 101.186 181.73 102.03C181.16 105.19 179.17 107.75 177.3 107.75ZM179.3 96.51C177.55 96.51 175.67 98.99 175.12 102.03C174.77 104.03 175.05 105.83 175.87 106.8C176.036 107.016 176.25 107.192 176.494 107.313C176.738 107.435 177.007 107.498 177.28 107.5C179.04 107.5 180.91 105.03 181.46 101.99C181.672 101.186 181.715 100.347 181.586 99.5262C181.457 98.7051 181.159 97.9197 180.71 97.22C180.548 97.0033 180.338 96.8266 180.097 96.7035C179.856 96.5804 179.591 96.5142 179.32 96.51H179.3Z" fill="#F9F9F9"/>
<path d="M185.07 108.75C184.746 108.745 184.428 108.667 184.138 108.522C183.849 108.376 183.597 108.167 183.4 107.91C182.951 107.237 182.647 106.477 182.508 105.68C182.368 104.883 182.396 104.066 182.59 103.28C183.1 100.34 185.02 97.96 186.87 97.96C187.194 97.9686 187.512 98.0493 187.801 98.1964C188.09 98.3434 188.342 98.553 188.54 98.81C188.985 99.4832 189.286 100.241 189.426 101.036C189.565 101.831 189.539 102.646 189.35 103.43C188.85 106.38 186.93 108.75 185.07 108.75ZM186.84 98.21C185.1 98.21 183.3 100.5 182.84 103.33C182.661 104.08 182.636 104.858 182.766 105.618C182.897 106.378 183.181 107.103 183.6 107.75C183.779 107.974 184.003 108.156 184.259 108.286C184.514 108.415 184.794 108.488 185.08 108.5C186.82 108.5 188.63 106.22 189.08 103.39C189.258 102.641 189.283 101.863 189.154 101.104C189.026 100.344 188.745 99.6187 188.33 98.97C188.152 98.7445 187.928 98.5599 187.673 98.4288C187.417 98.2976 187.137 98.223 186.85 98.21H186.84Z" fill="#F9F9F9"/>
<path d="M94.17 332.71C93.17 332.71 92.17 331.17 91.58 330.28C91.5602 330.25 91.5497 330.216 91.5497 330.18C91.5497 330.144 91.5602 330.11 91.58 330.08C91.6014 330.051 91.6304 330.028 91.6639 330.014C91.6974 330 91.7341 329.995 91.77 330C92.09 330.07 94.84 330.67 95.19 331.61C95.2298 331.714 95.2406 331.826 95.2212 331.935C95.2018 332.045 95.153 332.146 95.08 332.23C94.9861 332.385 94.8518 332.511 94.6915 332.596C94.5312 332.681 94.351 332.72 94.17 332.71ZM92.08 330.46C92.85 331.62 93.6 332.31 94.14 332.34C94.2599 332.341 94.3781 332.311 94.4831 332.253C94.5882 332.196 94.6766 332.112 94.74 332.01C94.7738 331.975 94.7965 331.93 94.8054 331.882C94.8143 331.834 94.8089 331.785 94.79 331.74C94.61 331.24 93.18 330.74 92.08 330.46Z" fill="#C9F56A"/>
<path d="M92.53 330.46C92.2271 330.461 91.9251 330.428 91.63 330.36C91.5999 330.35 91.5725 330.332 91.55 330.31C91.5275 330.287 91.5104 330.26 91.5 330.23C91.4802 330.172 91.4802 330.108 91.5 330.05C91.57 329.99 93.1 328.48 94.23 328.48H94.31C94.4499 328.489 94.5863 328.528 94.7104 328.593C94.8344 328.659 94.9433 328.75 95.03 328.86C95.1319 328.967 95.1952 329.104 95.2097 329.251C95.2242 329.398 95.1891 329.545 95.11 329.67C94.79 330.21 93.51 330.46 92.53 330.46ZM92.08 330.07C93.02 330.18 94.54 329.91 94.85 329.46C94.9 329.39 94.94 329.28 94.79 329.09C94.7378 329.016 94.6688 328.956 94.5889 328.915C94.5089 328.873 94.4202 328.851 94.33 328.85C93.4706 329.011 92.6835 329.438 92.08 330.07Z" fill="#C9F56A"/>
<path d="M149.46 352.3C148.632 352.28 147.808 352.18 147 352C146.962 351.992 146.926 351.972 146.9 351.944C146.873 351.915 146.855 351.879 146.85 351.84C146.846 351.802 146.853 351.763 146.871 351.73C146.888 351.696 146.916 351.668 146.95 351.65C147.32 351.47 150.53 349.87 151.46 350.41C151.544 350.464 151.614 350.538 151.662 350.625C151.711 350.712 151.738 350.81 151.74 350.91C151.751 351.079 151.721 351.247 151.653 351.402C151.585 351.557 151.481 351.693 151.35 351.8C150.794 352.173 150.128 352.349 149.46 352.3ZM147.63 351.76C149.34 352.04 150.63 351.97 151.13 351.54C151.216 351.467 151.283 351.374 151.327 351.27C151.37 351.166 151.388 351.053 151.38 350.94C151.382 350.902 151.374 350.865 151.356 350.831C151.339 350.798 151.312 350.77 151.28 350.75C150.78 350.46 149 351.14 147.63 351.75V351.76Z" fill="#C9F56A"/>
<path d="M147.05 352H146.94C146.911 351.981 146.887 351.954 146.873 351.922C146.859 351.89 146.854 351.855 146.86 351.82C146.86 351.68 147.34 348.5 149.08 348.5H149.23C149.73 348.55 149.87 348.8 149.9 349.01C150.04 349.89 148.1 351.59 147.12 352.01L147.05 352ZM149.05 348.84C147.92 348.84 147.42 350.68 147.25 351.48C148.25 350.89 149.58 349.56 149.5 349.03C149.5 349.03 149.5 348.87 149.15 348.84H149.05Z" fill="#C9F56A"/>
<path d="M177.23 101.29L178.8 101.15C178.8 101.15 177.81 102.17 177.23 101.29Z" fill="#1A2E35"/>
<path d="M170.36 137.54C157.36 132.61 153.3 125.23 153.61 123.68L155.61 123.8H156C156.499 123.813 156.996 123.856 157.49 123.93C158.41 124.01 159.36 124.11 160.32 124.24L161.32 124.38C166.093 124.96 170.818 125.879 175.46 127.13C177.58 127.75 178.28 127.95 179.46 128.37L180.46 128.75L180.88 128.91C181.92 131.15 181.69 135.73 170.36 137.54Z" fill="#FD897B"/>
<path d="M170.36 137.54C157.36 132.61 153.3 125.23 153.61 123.68L155.61 123.8H156C158.64 127.55 164.42 132.73 170.31 133.44C175.05 132.44 179.52 131.3 179.48 128.37L180.48 128.75L180.9 128.91C181.92 131.15 181.69 135.73 170.36 137.54Z" fill="#C9F56A"/>
<path opacity="0.3" d="M170.36 137.54C157.36 132.61 153.3 125.23 153.61 123.68L155.61 123.8H156C158.64 127.55 164.42 132.73 170.31 133.44C175.05 132.44 179.52 131.3 179.48 128.37L180.48 128.75L180.9 128.91C181.92 131.15 181.69 135.73 170.36 137.54Z" fill="black"/>
<path d="M144.09 169.21L142.09 171.73C141.94 171.92 142.16 172.19 142.52 172.26L175.18 178.62C175.46 178.68 175.72 178.62 175.77 178.41L176.59 175.68C176.65 175.49 176.44 175.28 176.13 175.22L144.59 169.08C144.502 169.061 144.411 169.062 144.324 169.085C144.238 169.108 144.157 169.15 144.09 169.21Z" fill="#1A2E35"/>
<path d="M147.64 173.56L146.8 173.4C146.63 173.4 146.52 173.26 146.55 173.15L147.65 169.61C147.65 169.5 147.85 169.45 148.01 169.48L148.86 169.64C149.03 169.64 149.14 169.79 149.11 169.89L148.01 173.44C147.971 173.499 147.913 173.543 147.846 173.565C147.779 173.587 147.706 173.585 147.64 173.56Z" fill="#C9F56A"/>
<path opacity="0.3" d="M147.64 173.56L146.8 173.4C146.63 173.4 146.52 173.26 146.55 173.15L147.65 169.61C147.65 169.5 147.85 169.45 148.01 169.48L148.86 169.64C149.03 169.64 149.14 169.79 149.11 169.89L148.01 173.44C147.971 173.499 147.913 173.543 147.846 173.565C147.779 173.587 147.706 173.585 147.64 173.56Z" fill="black"/>
<path d="M149.86 135.61C149.48 137.98 149.12 140.61 148.86 143.07C148.6 145.53 148.37 148.07 148.25 150.63C148.183 151.89 148.143 153.15 148.13 154.41V158.16C148.18 160.609 148.37 163.053 148.7 165.48C148.891 166.31 149.229 167.1 149.7 167.81C150.302 168.782 150.97 169.711 151.7 170.59C153.298 172.487 155.007 174.287 156.82 175.98C158.65 177.74 160.57 179.44 162.54 181.1C164.51 182.76 166.54 184.41 168.54 186L166.39 189.32C161.683 186.742 157.183 183.803 152.93 180.53C150.732 178.85 148.66 177.012 146.73 175.03C145.698 173.97 144.752 172.83 143.9 171.62C142.842 170.192 142.09 168.562 141.69 166.83L141.32 164.71C141.19 164.02 141.1 163.33 141.02 162.65C140.82 161.27 140.71 159.9 140.6 158.53C140.392 155.805 140.328 153.071 140.41 150.34C140.49 147.63 140.64 144.93 140.91 142.24C141.18 139.55 141.52 136.91 142.06 134.13L149.86 135.61Z" fill="#FD897B"/>
<path d="M143.22 125.63C138.94 129.09 139.96 139.37 139.96 139.37L154.36 144.11C154.36 144.11 153.7 132.26 153 128C152.14 122.93 147.42 122.22 143.22 125.63Z" fill="#1A2E35"/>
<path d="M166.78 185.36L173.29 182.94L172.29 189.13C172.29 189.13 167.57 190.83 165.15 188.65L166.78 185.36Z" fill="#FD897B"/>
<path d="M181.04 183.86V188.64L172.29 189.13L173.29 182.94L181.04 183.86Z" fill="#FD897B"/>
<path d="M172.79 178.46L171.95 178.3C171.78 178.3 171.67 178.16 171.7 178.05L172.8 174.51C172.8 174.4 173 174.35 173.17 174.38L174.01 174.54C174.18 174.54 174.29 174.69 174.26 174.79L173.16 178.34C173.13 178.44 173 178.5 172.79 178.46Z" fill="#C9F56A"/>
<path opacity="0.3" d="M172.79 178.46L171.95 178.3C171.78 178.3 171.67 178.16 171.7 178.05L172.8 174.51C172.8 174.4 173 174.35 173.17 174.38L174.01 174.54C174.18 174.54 174.29 174.69 174.26 174.79L173.16 178.34C173.13 178.44 173 178.5 172.79 178.46Z" fill="black"/>
<path d="M160.22 176L159.37 175.84C159.2 175.84 159.09 175.7 159.13 175.59L160.23 172.05C160.23 171.94 160.42 171.89 160.59 171.92L161.44 172.08C161.6 172.08 161.72 172.23 161.68 172.33L160.58 175.88C160.55 176 160.39 176.05 160.22 176Z" fill="#C9F56A"/>
<path opacity="0.3" d="M160.22 176L159.37 175.84C159.2 175.84 159.09 175.7 159.13 175.59L160.23 172.05C160.23 171.94 160.42 171.89 160.59 171.92L161.44 172.08C161.6 172.08 161.72 172.23 161.68 172.33L160.58 175.88C160.55 176 160.39 176.05 160.22 176Z" fill="black"/>
<path d="M96.5301 234.31L148.37 347.53C149.558 350.103 151.717 352.101 154.373 353.089C157.03 354.076 159.97 353.972 162.55 352.8L170.78 349.04L361.35 261.79C363.924 260.605 365.925 258.45 366.914 255.794C367.904 253.139 367.801 250.2 366.63 247.62L320.82 147.62L314.82 134.41C313.628 131.84 311.469 129.845 308.814 128.859C306.159 127.872 303.221 127.973 300.64 129.14L101.83 220.14C99.2559 221.325 97.2544 223.479 96.2617 226.133C95.2689 228.788 95.3654 231.727 96.5301 234.31Z" fill="#C9F56A"/>
<path opacity="0.1" d="M96.5301 234.31L148.37 347.53C149.558 350.103 151.717 352.101 154.373 353.089C157.03 354.076 159.97 353.972 162.55 352.8L170.78 349.04L361.35 261.79C363.924 260.605 365.925 258.45 366.914 255.794C367.904 253.139 367.801 250.2 366.63 247.62L320.82 147.62L314.82 134.41C313.628 131.84 311.469 129.845 308.814 128.859C306.159 127.872 303.221 127.973 300.64 129.14L101.83 220.14C99.2559 221.325 97.2544 223.479 96.2617 226.133C95.2689 228.788 95.3654 231.727 96.5301 234.31Z" fill="white"/>
<path d="M335.826 180.333L117.573 280.257L143.116 336.048L361.369 236.124L335.826 180.333Z" fill="#C9F56A"/>
<path opacity="0.3" d="M335.826 180.333L117.573 280.257L143.116 336.048L361.369 236.124L335.826 180.333Z" fill="white"/>
<path d="M326.789 206.143L188.867 269.289L198.009 289.256L335.931 226.11L326.789 206.143Z" fill="#C9F56A"/>
<path opacity="0.8" d="M326.789 206.143L188.867 269.289L198.009 289.256L335.931 226.11L326.789 206.143Z" fill="white"/>
<path d="M328.356 160.001L109.927 260.837L123.679 290.626L342.108 189.79L328.356 160.001Z" fill="#C9F56A"/>
<path opacity="0.3" d="M328.356 160.001L109.927 260.837L123.679 290.626L342.108 189.79L328.356 160.001Z" fill="black"/>
<path d="M126.17 235.73L170.78 349L361.35 261.75C363.924 260.565 365.925 258.41 366.914 255.755C367.904 253.099 367.801 250.16 366.63 247.58L320.82 147.58L132.21 221.86C129.577 222.908 127.465 224.953 126.334 227.551C125.202 230.149 125.143 233.089 126.17 235.73Z" fill="#C9F56A"/>
<path d="M378.408 199.926L377.464 200.257L379.025 204.701L379.969 204.369L378.408 199.926Z" fill="#C9F56A"/>
<path opacity="0.1" d="M378.408 199.926L377.464 200.257L379.025 204.701L379.969 204.369L378.408 199.926Z" fill="white"/>
<path d="M370.533 177.591L369.589 177.922L375.739 195.434L376.682 195.102L370.533 177.591Z" fill="#C9F56A"/>
<path opacity="0.1" d="M370.533 177.591L369.589 177.922L375.739 195.434L376.682 195.102L370.533 177.591Z" fill="white"/>
<path d="M139.44 222.25L345.74 149.8C348.416 148.869 351.353 149.035 353.907 150.262C356.461 151.49 358.425 153.678 359.37 156.35L400.63 273.84C401.562 276.516 401.398 279.453 400.172 282.008C398.947 284.564 396.761 286.531 394.09 287.48L187.79 359.93C185.112 360.856 182.177 360.688 179.623 359.461C177.068 358.235 175.101 356.049 174.15 353.38L132.89 235.89C131.958 233.212 132.124 230.275 133.352 227.719C134.579 225.163 136.768 223.197 139.44 222.25Z" fill="#C9F56A"/>
<path opacity="0.1" d="M139.44 222.25L345.74 149.8C348.416 148.869 351.353 149.035 353.907 150.262C356.461 151.49 358.425 153.678 359.37 156.35L400.63 273.84C401.562 276.516 401.398 279.453 400.172 282.008C398.947 284.564 396.761 286.531 394.09 287.48L187.79 359.93C185.112 360.856 182.177 360.688 179.623 359.461C177.068 358.235 175.101 356.049 174.15 353.38L132.89 235.89C131.958 233.212 132.124 230.275 133.352 227.719C134.579 225.163 136.768 223.197 139.44 222.25Z" fill="white"/>
<path d="M375.165 201.312L148.684 280.846L166.633 331.956L393.114 252.422L375.165 201.312Z" fill="#C9F56A"/>
<path opacity="0.3" d="M375.165 201.312L148.684 280.846L166.633 331.956L393.114 252.422L375.165 201.312Z" fill="white"/>
<path d="M348.055 176.438L301.238 192.879L303.799 200.172L350.616 183.731L348.055 176.438Z" fill="#C9F56A"/>
<path opacity="0.8" d="M348.055 176.438L301.238 192.879L303.799 200.172L350.616 183.731L348.055 176.438Z" fill="white"/>
<path d="M379.422 265.753L341.861 278.943L343.199 282.755L380.76 269.565L379.422 265.753Z" fill="#C9F56A"/>
<path opacity="0.8" d="M379.422 265.753L341.861 278.943L343.199 282.755L380.76 269.565L379.422 265.753Z" fill="white"/>
<path d="M381.977 273.046L333.575 290.043L334.913 293.855L383.315 276.857L381.977 273.046Z" fill="#C9F56A"/>
<path opacity="0.8" d="M381.977 273.046L333.575 290.043L334.913 293.855L383.315 276.857L381.977 273.046Z" fill="white"/>
<path d="M209.391 328.727L185.19 337.226L188.069 345.425L212.27 336.926L209.391 328.727Z" fill="#C9F56A"/>
<path opacity="0.8" d="M209.391 328.727L185.19 337.226L188.069 345.425L212.27 336.926L209.391 328.727Z" fill="white"/>
<path d="M338.79 258.5L367.05 248.58C368.54 248.05 369.76 246.953 370.445 245.528C371.131 244.103 371.226 242.465 370.71 240.97C370.18 239.48 369.083 238.26 367.658 237.575C366.233 236.889 364.595 236.794 363.1 237.31L334.83 247.24C333.34 247.77 332.12 248.867 331.435 250.292C330.749 251.717 330.654 253.355 331.17 254.85C331.702 256.34 332.801 257.56 334.229 258.244C335.656 258.927 337.295 259.019 338.79 258.5Z" fill="#C9F56A"/>
<path d="M290.38 275.5L318.65 265.57C320.129 265.038 321.339 263.946 322.022 262.531C322.704 261.115 322.804 259.488 322.3 258C321.768 256.512 320.67 255.294 319.245 254.611C317.82 253.927 316.184 253.834 314.69 254.35L286.43 264.28C284.94 264.81 283.72 265.907 283.035 267.332C282.349 268.757 282.254 270.395 282.77 271.89C283.31 273.371 284.411 274.579 285.835 275.255C287.259 275.93 288.892 276.018 290.38 275.5Z" fill="#C9F56A"/>
<path d="M242 292.5L270.27 282.57C271.745 282.034 272.951 280.941 273.629 279.526C274.308 278.11 274.405 276.486 273.9 275C273.368 273.512 272.27 272.294 270.845 271.611C269.42 270.927 267.783 270.834 266.29 271.35L238 281.24C236.512 281.772 235.294 282.87 234.611 284.295C233.927 285.72 233.834 287.356 234.35 288.85C234.882 290.347 235.986 291.573 237.42 292.257C238.854 292.941 240.501 293.029 242 292.5Z" fill="#C9F56A"/>
<path d="M193.57 309.5L221.84 299.57C223.32 299.04 224.533 297.949 225.218 296.533C225.902 295.118 226.004 293.49 225.5 292C224.968 290.512 223.87 289.294 222.445 288.611C221.02 287.927 219.383 287.834 217.89 288.35L189.62 298.28C188.13 298.81 186.91 299.907 186.225 301.332C185.539 302.757 185.444 304.395 185.96 305.89C186.5 307.371 187.601 308.579 189.025 309.255C190.449 309.93 192.082 310.018 193.57 309.5Z" fill="#C9F56A"/>
<g opacity="0.8">
<path d="M338.79 258.5L367.05 248.58C368.54 248.05 369.76 246.953 370.445 245.528C371.131 244.103 371.226 242.465 370.71 240.97C370.18 239.48 369.083 238.26 367.658 237.575C366.233 236.889 364.595 236.794 363.1 237.31L334.83 247.24C333.34 247.77 332.12 248.867 331.435 250.292C330.749 251.717 330.654 253.355 331.17 254.85C331.702 256.34 332.801 257.56 334.229 258.244C335.656 258.927 337.295 259.019 338.79 258.5Z" fill="white"/>
<path d="M290.38 275.5L318.65 265.57C320.129 265.038 321.339 263.946 322.022 262.531C322.704 261.115 322.804 259.488 322.3 258C321.768 256.512 320.67 255.294 319.245 254.611C317.82 253.927 316.184 253.834 314.69 254.35L286.43 264.28C284.94 264.81 283.72 265.907 283.035 267.332C282.349 268.757 282.254 270.395 282.77 271.89C283.31 273.371 284.411 274.579 285.835 275.255C287.259 275.93 288.892 276.018 290.38 275.5Z" fill="white"/>
<path d="M242 292.5L270.27 282.57C271.745 282.034 272.951 280.941 273.629 279.526C274.308 278.11 274.405 276.486 273.9 275C273.368 273.512 272.27 272.294 270.845 271.611C269.42 270.927 267.783 270.834 266.29 271.35L238 281.24C236.512 281.772 235.294 282.87 234.611 284.295C233.927 285.72 233.834 287.356 234.35 288.85C234.882 290.347 235.986 291.573 237.42 292.257C238.854 292.941 240.501 293.029 242 292.5Z" fill="white"/>
<path d="M193.57 309.5L221.84 299.57C223.32 299.04 224.533 297.949 225.218 296.533C225.902 295.118 226.004 293.49 225.5 292C224.968 290.512 223.87 289.294 222.445 288.611C221.02 287.927 219.383 287.834 217.89 288.35L189.62 298.28C188.13 298.81 186.91 299.907 186.225 301.332C185.539 302.757 185.444 304.395 185.96 305.89C186.5 307.371 187.601 308.579 189.025 309.255C190.449 309.93 192.082 310.018 193.57 309.5Z" fill="white"/>
</g>
<path d="M353.479 204.262L328.325 213.095C326.189 213.846 325.065 216.186 325.815 218.322L331.057 233.248C331.807 235.385 334.147 236.509 336.284 235.758L361.438 226.925C363.574 226.175 364.698 223.835 363.948 221.698L358.706 206.772C357.956 204.635 355.616 203.512 353.479 204.262Z" fill="#C9F56A"/>
<path opacity="0.3" d="M353.479 204.262L328.325 213.095C326.189 213.846 325.065 216.186 325.815 218.322L331.057 233.248C331.807 235.385 334.147 236.509 336.284 235.758L361.438 226.925C363.574 226.175 364.698 223.835 363.948 221.698L358.706 206.772C357.956 204.635 355.616 203.512 353.479 204.262Z" fill="black"/>
<path d="M201.68 232C201.053 230.207 200.078 228.556 198.812 227.14C197.546 225.725 196.013 224.572 194.302 223.749C192.59 222.926 190.733 222.449 188.836 222.345C186.94 222.24 185.042 222.51 183.25 223.14L162.93 230.77L162.67 230.84L162.07 231.09L161.7 231.23C158.419 232.712 155.835 235.4 154.484 238.737C153.134 242.074 153.12 245.803 154.448 249.15C155.775 252.497 158.34 255.203 161.61 256.708C164.881 258.213 168.605 258.4 172.01 257.23L191.25 250.83C191.804 250.706 192.352 250.552 192.89 250.37C193.288 250.231 193.679 250.07 194.06 249.89C197.33 248.392 199.923 245.729 201.333 242.42C202.742 239.111 202.866 235.395 201.68 232Z" fill="#C9F56A"/>
<path opacity="0.8" d="M201.68 232C201.053 230.207 200.078 228.556 198.812 227.14C197.546 225.725 196.013 224.572 194.302 223.749C192.59 222.926 190.733 222.449 188.836 222.345C186.94 222.24 185.042 222.51 183.25 223.14L162.93 230.77L162.67 230.84L162.07 231.09L161.7 231.23C158.419 232.712 155.835 235.4 154.484 238.737C153.134 242.074 153.12 245.803 154.448 249.15C155.775 252.497 158.34 255.203 161.61 256.708C164.881 258.213 168.605 258.4 172.01 257.23L191.25 250.83C191.804 250.706 192.352 250.552 192.89 250.37C193.288 250.231 193.679 250.07 194.06 249.89C197.33 248.392 199.923 245.729 201.333 242.42C202.742 239.111 202.866 235.395 201.68 232Z" fill="white"/>
</g>
<defs>
<clipPath id="clip0_111_3862">
<rect width="500" height="372.56" fill="white" transform="translate(-30)"/>
</clipPath>
</defs>
</svg>
