<svg width="142" height="47" viewBox="0 0 142 47" fill="none" xmlns="http://www.w3.org/2000/svg">
<path d="M14.64 36.336C11.824 36.336 9.31201 35.744 7.10401 34.56C4.89601 33.376 3.15201 31.76 1.87201 29.712C0.624008 27.632 7.7486e-06 25.28 7.7486e-06 22.656V6.67572e-06H7.44001V22.176C7.44001 23.584 7.74401 24.864 8.35201 26.016C8.99201 27.136 9.85601 28.016 10.944 28.656C12.032 29.296 13.264 29.616 14.64 29.616C16.048 29.616 17.28 29.296 18.336 28.656C19.424 28.016 20.272 27.136 20.88 26.016C21.52 24.864 21.84 23.584 21.84 22.176V6.67572e-06H29.28V22.656C29.28 25.28 28.64 27.632 27.36 29.712C26.112 31.76 24.384 33.376 22.176 34.56C19.968 35.744 17.456 36.336 14.64 36.336ZM40.3504 36.336C38.4624 36.336 36.8304 36.032 35.4544 35.424C34.0784 34.816 33.0224 33.952 32.2864 32.832C31.5504 31.68 31.1824 30.32 31.1824 28.752C31.1824 27.28 31.5184 25.984 32.1904 24.864C32.8624 23.712 33.8864 22.752 35.2624 21.984C36.6704 21.216 38.4144 20.672 40.4944 20.352L48.5104 19.056V24.336L41.7904 25.536C40.7664 25.728 39.9824 26.064 39.4384 26.544C38.8944 26.992 38.6224 27.648 38.6224 28.512C38.6224 29.312 38.9264 29.936 39.5344 30.384C40.1424 30.832 40.8944 31.056 41.7904 31.056C42.9744 31.056 44.0144 30.8 44.9104 30.288C45.8064 29.776 46.4944 29.088 46.9744 28.224C47.4864 27.328 47.7424 26.352 47.7424 25.296V18.48C47.7424 17.488 47.3424 16.656 46.5424 15.984C45.7744 15.312 44.7184 14.976 43.3744 14.976C42.0944 14.976 40.9584 15.328 39.9664 16.032C39.0064 16.736 38.3024 17.664 37.8544 18.816L32.0944 16.08C32.6064 14.608 33.4224 13.344 34.5424 12.288C35.6624 11.232 37.0064 10.416 38.5744 9.84001C40.1424 9.26401 41.8544 8.97601 43.7104 8.97601C45.9184 8.97601 47.8704 9.37601 49.5664 10.176C51.2624 10.976 52.5744 12.096 53.5024 13.536C54.4624 14.944 54.9424 16.592 54.9424 18.48V35.76H48.2224V31.536L49.8544 31.248C49.0864 32.4 48.2384 33.36 47.3104 34.128C46.3824 34.864 45.3424 35.408 44.1904 35.76C43.0384 36.144 41.7584 36.336 40.3504 36.336ZM57.8228 35.76V9.55201H64.5428V14.736L64.1588 13.584C64.7668 12.016 65.7428 10.864 67.0868 10.128C68.4628 9.36001 70.0628 8.97601 71.8868 8.97601C73.8708 8.97601 75.5988 9.39201 77.0708 10.224C78.5748 11.056 79.7428 12.224 80.5748 13.728C81.4068 15.2 81.8228 16.928 81.8228 18.912V35.76H74.6228V20.448C74.6228 19.424 74.4148 18.544 73.9988 17.808C73.6148 17.072 73.0548 16.496 72.3188 16.08C71.6148 15.664 70.7828 15.456 69.8228 15.456C68.8948 15.456 68.0628 15.664 67.3268 16.08C66.5908 16.496 66.0148 17.072 65.5988 17.808C65.2148 18.544 65.0228 19.424 65.0228 20.448V35.76H57.8228ZM97.0211 46.32C95.0051 46.32 93.1331 45.984 91.4051 45.312C89.6771 44.64 88.1891 43.696 86.9411 42.48C85.7251 41.296 84.8451 39.888 84.3011 38.256L90.9731 35.904C91.3251 37.12 92.0451 38.08 93.1331 38.784C94.2211 39.488 95.5171 39.84 97.0211 39.84C98.2051 39.84 99.2291 39.616 100.093 39.168C100.957 38.752 101.613 38.128 102.061 37.296C102.541 36.464 102.781 35.488 102.781 34.368V28.368L104.173 30.096C103.277 31.568 102.125 32.672 100.717 33.408C99.3091 34.112 97.6611 34.464 95.7731 34.464C93.3411 34.464 91.1651 33.92 89.2451 32.832C87.3251 31.712 85.8211 30.192 84.7331 28.272C83.6451 26.32 83.1011 24.112 83.1011 21.648C83.1011 19.184 83.6451 17.008 84.7331 15.12C85.8211 13.2 87.3091 11.696 89.1971 10.608C91.0851 9.52001 93.2291 8.97601 95.6291 8.97601C97.5171 8.97601 99.1651 9.36001 100.573 10.128C101.981 10.864 103.181 12 104.173 13.536L103.261 15.264V9.55201H109.981V34.368C109.981 36.672 109.421 38.72 108.301 40.512C107.181 42.336 105.645 43.76 103.693 44.784C101.773 45.808 99.5491 46.32 97.0211 46.32ZM96.7811 27.936C97.9971 27.936 99.0531 27.68 99.9491 27.168C100.845 26.656 101.533 25.936 102.013 25.008C102.525 24.08 102.781 22.992 102.781 21.744C102.781 20.496 102.525 19.408 102.013 18.48C101.501 17.52 100.797 16.784 99.9011 16.272C99.0051 15.728 97.9651 15.456 96.7811 15.456C95.5651 15.456 94.4771 15.728 93.5171 16.272C92.5891 16.784 91.8531 17.52 91.3091 18.48C90.7971 19.408 90.5411 20.496 90.5411 21.744C90.5411 22.96 90.7971 24.032 91.3091 24.96C91.8531 25.888 92.5891 26.624 93.5171 27.168C94.4771 27.68 95.5651 27.936 96.7811 27.936ZM112.882 35.76V9.55201H120.082V35.76H112.882ZM112.882 7.20001V6.67572e-06H120.082V7.20001H112.882ZM113.831 35.76V9.55201H120.551V14.736L120.167 13.584C120.775 12.016 121.751 10.864 123.095 10.128C124.471 9.36001 126.071 8.97601 127.895 8.97601C129.879 8.97601 131.607 9.39201 133.079 10.224C134.583 11.056 135.751 12.224 136.583 13.728C137.415 15.2 137.831 16.928 137.831 18.912V35.76H130.631V20.448C130.631 19.424 130.423 18.544 130.007 17.808C129.623 17.072 129.063 16.496 128.327 16.08C127.623 15.664 126.791 15.456 125.831 15.456C124.903 15.456 124.071 15.664 123.335 16.08C122.599 16.496 122.023 17.072 121.607 17.808C121.223 18.544 121.031 19.424 121.031 20.448V35.76H113.831ZM134.597 35.76V28.56H141.797V35.76H134.597Z" fill="#3D3D3D"/>
</svg>
