<svg width="24" height="24" viewBox="0 0 24 24" fill="none" xmlns="http://www.w3.org/2000/svg">
<path opacity="0.4" d="M20.0002 11.2534L20.0774 11.2573C20.4555 11.2957 20.7502 11.6151 20.7502 12.0034C20.7502 12.3917 20.4555 12.711 20.0774 12.7495L20.0002 12.7534H3.99927C3.58505 12.7534 3.24927 12.4176 3.24927 12.0034C3.24927 11.5891 3.58505 11.2534 3.99927 11.2534H20.0002Z" fill="#343C54"/>
<path d="M9.4651 5.46955C9.75791 5.17679 10.2327 5.17684 10.5256 5.46955C10.8184 5.76236 10.8184 6.23718 10.5256 6.5301L5.05885 11.9998L10.5256 17.4696L10.5774 17.5262C10.8177 17.8208 10.8002 18.2555 10.5256 18.5301C10.251 18.8046 9.81624 18.8221 9.52174 18.5819L9.4651 18.5301L3.469 12.5301C3.17634 12.2373 3.17635 11.7624 3.469 11.4696L9.4651 5.46955Z" fill="#343C54"/>
</svg>
