<svg width="32" height="32" viewBox="0 0 32 32" fill="none" xmlns="http://www.w3.org/2000/svg">
<rect width="32" height="32" fill="white"/>
<path opacity="0.4" d="M17.0021 3.66797C17.0021 3.11568 16.5544 2.66797 16.0021 2.66797C15.4499 2.66797 15.0021 3.11568 15.0021 3.66797V4.71734C9.94881 5.21906 6.00213 9.48262 6.00213 14.668V18.82L5.07915 21.2812C4.34368 23.2425 5.79352 25.3347 7.88813 25.3347H24.1161C26.2108 25.3347 27.6605 23.2425 26.9251 21.2812L26.0021 18.82V14.668C26.0021 9.48262 22.0555 5.21906 17.0021 4.71734V3.66797ZM8.00213 18.8224V14.668C8.00213 10.2497 11.5839 6.66797 16.0021 6.66797C20.4204 6.66797 24.0021 10.2497 24.0021 14.668V18.8224C24.0021 19.0607 24.0449 19.2969 24.1287 19.52L25.0524 21.9835C25.2976 22.6372 24.8144 23.3347 24.1161 23.3347H7.88813C7.18992 23.3347 6.70664 22.6372 6.9518 21.9835L7.87564 19.52C7.95928 19.2969 8.00213 19.0607 8.00213 18.8224Z" fill="#343C54"/>
<path d="M15.9996 29.3327C18.2267 29.3327 20.0383 27.5509 20.0836 25.3347H18.0828C18.038 26.4453 17.1229 27.3327 15.9996 27.3327C14.8764 27.3327 13.9613 26.4453 13.9165 25.3347H11.9157C11.9611 27.5509 13.7727 29.3327 15.9996 29.3327Z" fill="#343C54"/>
</svg>
