<svg width="24" height="24" viewBox="0 0 24 24" fill="none" xmlns="http://www.w3.org/2000/svg">
<path d="M19.2434 7.74975L17.7525 7.75014L6.72189 7.74975C5.52896 7.74975 4.56189 8.71681 4.56189 9.90975V12.3045V17.8561V18.2384C4.56189 19.4314 5.52896 20.3984 6.72189 20.3984H19.2019C20.3948 20.3984 21.3619 19.4314 21.3619 18.2384V9.90975C21.3619 8.73068 20.4172 7.72763 19.2434 7.74975ZM6.00189 10.8632V9.90975C6.00189 9.51211 6.32425 9.18975 6.72189 9.18975H19.2019C19.5996 9.18975 19.9219 9.51211 19.9219 9.90975V10.8632H6.00189ZM19.9219 13.5486V18.2384C19.9219 18.636 19.5996 18.9584 19.2019 18.9584H6.72189C6.32425 18.9584 6.00189 18.636 6.00189 18.2384V13.5486H19.9219Z" fill="#FDFEFF"/>
<path opacity="0.4" d="M3.75401 6.50672C2.60173 6.81547 1.91791 7.99988 2.22666 9.15216L4.56225 17.8566V12.3049L3.6176 8.77947C3.51469 8.39537 3.74262 8.00057 4.12671 7.89765L16.1815 4.66759C16.5656 4.56467 16.9604 4.79261 17.0633 5.1767L17.7528 7.75059L19.2437 7.75019L18.4542 4.804C18.1455 3.65171 16.961 2.9679 15.8087 3.27665L3.75401 6.50672Z" fill="#FDFEFF"/>
</svg>
