<svg width="22" height="18" viewBox="0 0 22 18" fill="none" xmlns="http://www.w3.org/2000/svg">
<g clip-path="url(#clip0_58_40)">
<g opacity="0.6">
<path d="M2.25 0C1.00736 0 0 1.00736 0 2.25V15.25C0 16.4926 1.00736 17.5 2.25 17.5H2.58333C3.82597 17.5 4.83333 16.4926 4.83333 15.25V2.25C4.83333 1.00736 3.82598 0 2.58333 0H2.25ZM1.5 2.25C1.5 1.83579 1.83579 1.5 2.25 1.5H2.58333C2.99755 1.5 3.33333 1.83579 3.33333 2.25V15.25C3.33333 15.6642 2.99755 16 2.58333 16H2.25C1.83579 16 1.5 15.6642 1.5 15.25V2.25Z" fill="#FE724E"/>
<path d="M8.583 6.38379C7.3404 6.38379 6.33301 7.3911 6.33301 8.6338V15.2501C6.33301 16.4927 7.3404 17.5001 8.583 17.5001H8.9163C10.159 17.5001 11.1663 16.4927 11.1663 15.2501V8.6338C11.1663 7.3911 10.159 6.38379 8.9163 6.38379H8.583ZM7.833 8.6338C7.833 8.2196 8.1688 7.8838 8.583 7.8838H8.9163C9.3306 7.8838 9.6663 8.2196 9.6663 8.6338V15.2501C9.6663 15.6643 9.3306 16.0001 8.9163 16.0001H8.583C8.1688 16.0001 7.833 15.6643 7.833 15.2501V8.6338Z" fill="#FE724E"/>
<path d="M12.666 11.6719C12.666 10.4292 13.6734 9.42188 14.916 9.42188H15.2493C16.492 9.42188 17.4993 10.4292 17.4993 11.6719V15.2501C17.4993 16.4927 16.492 17.5001 15.2493 17.5001H14.916C13.6734 17.5001 12.666 16.4927 12.666 15.2501V11.6719ZM14.916 10.9219C14.5018 10.9219 14.166 11.2577 14.166 11.6719V15.2501C14.166 15.6643 14.5018 16.0001 14.916 16.0001H15.2493C15.6636 16.0001 15.9993 15.6643 15.9993 15.2501V11.6719C15.9993 11.2577 15.6636 10.9219 15.2493 10.9219H14.916Z" fill="#FE724E"/>
</g>
<path d="M19.5516 4.55811C19.9658 4.55811 20.3016 4.8939 20.3016 5.30811V5.47709C21.0501 5.66626 21.6039 6.34412 21.6039 7.15134C21.6039 7.56555 21.2681 7.90134 20.8539 7.90134C20.4397 7.90134 20.1039 7.56555 20.1039 7.15134C20.1039 7.02607 20.0024 6.92452 19.8771 6.92452H19.4821C19.2154 6.92452 18.9993 7.14068 18.9993 7.40732C18.9993 7.60857 19.1241 7.78871 19.3125 7.85938L20.3174 8.23622C21.0913 8.52644 21.6039 9.26625 21.6039 10.0927C21.6039 10.9488 21.0615 11.6781 20.3016 11.9557V12.1918C20.3016 12.606 19.9658 12.9418 19.5516 12.9418C19.1374 12.9418 18.8016 12.606 18.8016 12.1918V12.023C18.0532 11.8338 17.4993 11.156 17.4993 10.3487C17.4993 9.93452 17.8351 9.59873 18.2493 9.59873C18.6635 9.59873 18.9993 9.93452 18.9993 10.3487C18.9993 10.474 19.1008 10.5755 19.2261 10.5755H19.6211C19.8878 10.5755 20.1039 10.3594 20.1039 10.0927C20.1039 9.89151 19.9791 9.71137 19.7907 9.6407L18.7858 9.26386C18.012 8.97363 17.4993 8.23382 17.4993 7.40732C17.4993 6.55132 18.0417 5.82201 18.8016 5.54437V5.30811C18.8016 4.8939 19.1374 4.55811 19.5516 4.55811Z" fill="#FE724E"/>
</g>
<defs>
<clipPath id="clip0_58_40">
<rect width="21.6039" height="17.5001" rx="4" fill="white"/>
</clipPath>
</defs>
</svg>
