<svg width="24" height="24" viewBox="0 0 24 24" fill="none" xmlns="http://www.w3.org/2000/svg">
<path opacity="0.4" d="M13.5 20V17C13.5 16.1716 12.8284 15.5 12 15.5C11.1716 15.5 10.5 16.1716 10.5 17V20C10.5 20.4142 10.1642 20.75 9.75 20.75C9.33579 20.75 9 20.4142 9 20V17C9 15.3431 10.3431 14 12 14C13.6569 14 15 15.3431 15 17V20C15 20.4142 14.6642 20.75 14.25 20.75C13.8358 20.75 13.5 20.4142 13.5 20Z" fill="#343C54"/>
<path d="M10.8037 3.60145C11.5865 3.10955 12.5997 3.14473 13.3496 3.70692L19.8496 8.58192L19.9531 8.66395C20.4567 9.08986 20.7499 9.71778 20.75 10.3817V18.5028C20.75 19.7455 19.7426 20.7528 18.5 20.7528H14.2695C14.6746 20.7425 14.9998 20.4114 15 20.0038V19.2528H18.5C18.9142 19.2528 19.25 18.917 19.25 18.5028V10.3817C19.2499 10.1755 19.165 9.97931 19.0176 9.83875L18.9502 9.78211L12.4502 4.90711C12.217 4.73231 11.9066 4.70967 11.6543 4.84071L11.5498 4.90711L5.0498 9.78211C4.86124 9.92369 4.75012 10.1459 4.75 10.3817V18.5028C4.75 18.917 5.08579 19.2528 5.5 19.2528H9V20.0038C9.00016 20.4114 9.32539 20.7425 9.73047 20.7528H5.5C4.25736 20.7528 3.25 19.7455 3.25 18.5028V10.3817C3.25012 9.67366 3.58393 9.00676 4.15039 8.58192L10.6504 3.70692L10.8037 3.60145Z" fill="#343C54"/>
</svg>
