<svg width="40" height="40" viewBox="0 0 40 40" fill="none" xmlns="http://www.w3.org/2000/svg">
<rect width="40" height="40" rx="20" fill="#FCECD1"/>
<path d="M12.5 13.75C12.5 11.6789 14.1789 10 16.25 10H17C17.4142 10 17.75 10.3358 17.75 10.75V29.25C17.75 29.6642 17.4142 30 17 30C16.5858 30 16.25 29.6642 16.25 29.25V22.75H14.75C13.5074 22.75 12.5 21.7426 12.5 20.5V13.75ZM16.25 11.5C15.0074 11.5 14 12.5074 14 13.75V20.5C14 20.9142 14.3358 21.25 14.75 21.25H16.25V11.5Z" fill="#FE724E"/>
<g opacity="0.6">
<path d="M21.5 10.75C21.5 10.3358 21.1642 10 20.75 10C20.3358 10 20 10.3358 20 10.75V15.75C20 17.5642 21.2883 19.0775 23 19.425V29.25C23 29.6642 23.3358 30 23.75 30C24.1642 30 24.5 29.6642 24.5 29.25V19.425C26.2117 19.0775 27.5 17.5642 27.5 15.75V10.75C27.5 10.3358 27.1642 10 26.75 10C26.3358 10 26 10.3358 26 10.75V15.75C26 16.9926 24.9926 18 23.75 18C22.5074 18 21.5 16.9926 21.5 15.75V10.75Z" fill="#FE724E"/>
<path d="M23.75 10C24.1642 10 24.5 10.3358 24.5 10.75V15.75C24.5 16.1642 24.1642 16.5 23.75 16.5C23.3358 16.5 23 16.1642 23 15.75V10.75C23 10.3358 23.3358 10 23.75 10Z" fill="#FE724E"/>
</g>
</svg>
