<svg width="22" height="22" viewBox="0 0 22 22" fill="none" xmlns="http://www.w3.org/2000/svg">
<g clip-path="url(#clip0_73_28)">
<path d="M16.6146 9.16675C17.6904 9.16675 18.5625 10.0388 18.5625 11.1146V11.1238C18.5625 12.1996 17.6904 13.0717 16.6146 13.0717C15.5388 13.0717 14.6667 12.1996 14.6667 11.1238V11.1146C14.6667 10.0388 15.5388 9.16675 16.6146 9.16675ZM5.61457 9.16675C6.69037 9.16675 7.56249 10.0388 7.56249 11.1146V11.1238C7.56249 12.1996 6.69038 13.0717 5.61457 13.0717C4.53877 13.0717 3.66666 12.1996 3.66666 11.1238V11.1146C3.66666 10.0388 4.53876 9.16675 5.61457 9.16675Z" fill="#343C54"/>
<path opacity="0.4" d="M11.1146 9.16675C12.1904 9.16675 13.0625 10.0388 13.0625 11.1146V11.1238C13.0625 12.1996 12.1904 13.0717 11.1146 13.0717C10.0388 13.0717 9.16666 12.1996 9.16666 11.1238V11.1146C9.16666 10.0388 10.0388 9.16675 11.1146 9.16675Z" fill="#343C54"/>
<path opacity="0.4" d="M11 0.916748C5.43112 0.916748 0.916656 5.43121 0.916656 11.0001C0.916656 16.5689 5.43112 21.0834 11 21.0834C16.5688 21.0834 21.0833 16.5689 21.0833 11.0001C21.0833 5.43121 16.5688 0.916748 11 0.916748ZM2.42916 11.0001C2.42916 6.26654 6.26645 2.42925 11 2.42925C15.7335 2.42925 19.5708 6.26654 19.5708 11.0001C19.5708 15.7336 15.7335 19.5709 11 19.5709C6.26645 19.5709 2.42916 15.7336 2.42916 11.0001Z" fill="#343C54"/>
</g>
<defs>
<clipPath id="clip0_73_28">
<rect width="22" height="22" fill="white"/>
</clipPath>
</defs>
</svg>
