<svg width="40" height="40" viewBox="0 0 40 40" fill="none" xmlns="http://www.w3.org/2000/svg">
<rect width="40" height="40" rx="20" fill="#12121B"/>
<path d="M24.4107 14.35C24.4107 16.74 22.4707 18.69 20.0707 18.69L20.0607 18.68C17.6707 18.68 15.7207 16.73 15.7207 14.34C15.7207 11.95 17.6807 10 20.0707 10C22.4607 10 24.4107 11.96 24.4107 14.35ZM22.9107 14.34C22.9107 12.78 21.6407 11.5 20.0707 11.5C18.5107 11.5 17.2307 12.78 17.2307 14.34C17.2307 15.9 18.5107 17.18 20.0707 17.18C21.6307 17.18 22.9107 15.9 22.9107 14.34Z" fill="#FDFEFF"/>
<path opacity="0.8" d="M20 20.1895C22.67 20.1895 24.76 20.9395 26.21 22.4195V22.4095C28.2567 24.4956 28.2504 27.2563 28.25 27.4344V27.4395C28.24 27.8495 27.91 28.1795 27.5 28.1795H27.49C27.07 28.1695 26.75 27.8295 26.75 27.4195C26.75 27.3695 26.75 25.0895 25.13 23.4495C23.97 22.2795 22.24 21.6795 20 21.6795C17.76 21.6795 16.03 22.2795 14.87 23.4495C13.25 25.0995 13.25 27.3995 13.25 27.4195C13.25 27.8295 12.92 28.1795 12.51 28.1795C12.15 28.1995 11.75 27.8595 11.75 27.4495V27.4448C11.7496 27.2771 11.743 24.506 13.79 22.4195C15.24 20.9395 17.33 20.1895 20 20.1895Z" fill="#FDFEFF"/>
</svg>
